<?xml version="1.0" encoding="utf-8"?>
<!-- Generator: Adobe Illustrator 19.2.1, SVG Export Plug-In . SVG Version: 6.00 Build 0)  -->
<svg version="1.1" id="layer" xmlns="http://www.w3.org/2000/svg" xmlns:xlink="http://www.w3.org/1999/xlink" x="0px" y="0px"
	 viewBox="0 0 652 652" style="enable-background:new 0 0 652 652;" xml:space="preserve">
<g>
	<path d="M307.3,354.1c-0.7-0.6-1.6-1-2.6-1.2c-1-0.2-2.2-0.4-3.4-0.4c-0.6,0-1.3,0-2.1,0.1c-0.8,0.1-1.5,0.1-2.3,0.2
		c-0.7,0.1-1.4,0.2-2.1,0.3c-0.6,0.1-1.1,0.2-1.5,0.3c-0.4,0.1-0.6,0.4-0.5,0.8l0.5,2.7c0,0.4,0.2,0.6,0.6,0.6c0.1,0,0.4,0,0.9-0.1
		c0.5-0.1,1-0.2,1.7-0.3c0.6-0.1,1.3-0.2,2-0.3c0.7-0.1,1.3-0.1,1.8-0.1c1,0,1.8,0.1,2.4,0.3c0.6,0.2,1,0.5,1.3,1
		c0.3,0.4,0.5,1,0.6,1.6c0.1,0.6,0.2,1.4,0.2,2.2v1.5l-3.9,0.2c-1.4,0.1-2.6,0.3-3.9,0.6c-1.2,0.3-2.3,0.8-3.2,1.5
		c-0.9,0.7-1.6,1.5-2.2,2.6c-0.5,1.1-0.8,2.4-0.8,3.9c0,2.5,0.6,4.3,1.9,5.6c1.3,1.2,2.9,1.8,5,1.8c1.5,0,2.9-0.2,4.1-0.7
		c1.2-0.5,2.3-1.1,3.3-1.8l0.5,1.5c0.1,0.2,0.1,0.3,0.2,0.4c0.1,0.1,0.2,0.2,0.5,0.2h2.5c0.4,0,0.7-0.2,0.7-0.6v-18.5
		c0-1.4-0.2-2.6-0.6-3.5C308.6,355.4,308,354.6,307.3,354.1 M304.8,373.5c-0.6,0.5-1.5,0.9-2.5,1.4c-1,0.4-2,0.7-2.9,0.7
		c-1.1,0-1.9-0.3-2.6-1c-0.6-0.7-0.9-1.7-0.9-3.1c0-2.7,1.5-4.1,4.4-4.3l4.6-0.3V373.5z M318.2,326.3c1.2,0,2.4-0.2,3.5-0.5
		c1.1-0.3,2.1-0.8,2.9-1.4c0.8-0.6,1.5-1.4,2-2.4c0.5-1,0.7-2.1,0.7-3.5c0-0.8-0.1-1.5-0.3-2.2c-0.2-0.7-0.5-1.3-1-1.8
		c-0.5-0.6-1.1-1.1-1.8-1.6c-0.7-0.5-1.7-1.1-2.8-1.6l-2.6-1.3c-1.4-0.7-2.4-1.3-2.8-1.9c-0.5-0.6-0.7-1.3-0.7-1.9
		c0-0.9,0.3-1.5,1-2c0.7-0.5,1.6-0.7,2.6-0.7c0.6,0,1.2,0,1.8,0.1c0.6,0.1,1.2,0.2,1.7,0.3c0.5,0.1,1,0.2,1.4,0.3
		c0.4,0.1,0.7,0.1,0.9,0.1c0.3,0,0.4,0,0.5-0.1c0.1-0.1,0.1-0.2,0.2-0.4l0.7-2.7c0.1-0.4-0.1-0.6-0.5-0.7c-0.8-0.2-1.7-0.4-2.8-0.6
		c-1.1-0.2-2.2-0.3-3.4-0.3c-2.7,0-4.9,0.6-6.5,1.9c-1.6,1.3-2.4,3-2.4,5.3c0,1.5,0.4,2.8,1.2,3.9c0.8,1.1,2.2,2.2,4.2,3.1l2.8,1.4
		c1.4,0.7,2.4,1.3,2.9,1.9c0.5,0.6,0.7,1.4,0.7,2.3c0,0.9-0.4,1.6-1.2,2.1c-0.8,0.5-1.8,0.7-2.9,0.7c-0.7,0-1.4-0.1-2.1-0.2
		c-0.7-0.1-1.4-0.2-2-0.4c-0.6-0.1-1.2-0.3-1.7-0.4c-0.5-0.1-0.8-0.2-1-0.3c-0.3,0-0.5,0.2-0.6,0.6l-0.7,2.7c-0.1,0.4,0,0.6,0.4,0.8
		c0.3,0.1,0.7,0.2,1.2,0.4c0.5,0.2,1.1,0.3,1.8,0.4s1.4,0.2,2.2,0.3C316.6,326.3,317.4,326.3,318.2,326.3 M476.1,325.8h3.6
		c0.4,0,0.7-0.2,0.7-0.6v-20.1c1.2-0.4,2.4-0.6,3.6-0.7c1.2-0.1,2.2-0.2,2.9-0.2c0.5,0,0.8-0.2,0.8-0.6l0.5-3.2c0-0.2,0-0.4,0-0.5
		c0-0.1-0.2-0.2-0.4-0.3c-0.2-0.1-0.3-0.1-0.5-0.1h-0.5c-0.7,0-1.7,0.2-2.8,0.5c-1.1,0.3-2.5,0.9-4.1,1.7l-0.4-1.3
		c-0.1-0.2-0.1-0.3-0.2-0.4c-0.1-0.1-0.2-0.1-0.5-0.1h-2.7c-0.4,0-0.7,0.2-0.7,0.6v24.8C475.5,325.7,475.7,325.8,476.1,325.8
		 M352.9,366.7c0.1-0.3,0.2-0.9,0.2-2c0-1.9-0.2-3.6-0.6-5.1c-0.4-1.5-0.9-2.8-1.7-3.8c-0.8-1-1.8-1.8-3-2.4
		c-1.2-0.6-2.6-0.8-4.3-0.8c-1.6,0-3,0.3-4.3,0.8c-1.3,0.5-2.5,1.3-3.4,2.4c-1,1.1-1.7,2.5-2.3,4.2c-0.6,1.7-0.8,3.8-0.8,6.2
		c0,4.5,1,7.9,2.9,10c1.9,2.1,4.7,3.2,8.2,3.2c1.4,0,2.8-0.1,4.3-0.4c1.5-0.3,2.9-0.7,4.4-1.3c0.4-0.2,0.5-0.4,0.4-0.8l-0.8-2.7
		c-0.1-0.2-0.2-0.4-0.4-0.4c-0.2,0-0.4,0-0.5,0.1c-1,0.4-2.1,0.7-3.2,1c-1.2,0.3-2.2,0.4-3.2,0.4c-1,0-1.9-0.1-2.7-0.4
		c-0.8-0.3-1.5-0.8-2.1-1.4c-0.6-0.6-1.1-1.5-1.4-2.5c-0.4-1-0.5-2.3-0.6-3.9h14.2C352.5,367.1,352.8,366.9,352.9,366.7
		 M337.9,363.3c0.3-4.6,2-6.9,5.1-6.9c0.9,0,1.7,0.2,2.4,0.6c0.6,0.4,1.2,0.9,1.5,1.5c0.4,0.6,0.7,1.4,0.8,2.2
		c0.2,0.8,0.3,1.7,0.3,2.6H337.9z M329.2,353h-7.1v-6c0-0.4-0.2-0.6-0.7-0.6l-3.6,0.5c-0.4,0-0.7,0.2-0.7,0.6v5.5h-2.6
		c-0.4,0-0.7,0.2-0.7,0.6v2.8c0,0.4,0.2,0.6,0.7,0.6h2.6v15.3c0,2.7,0.5,4.6,1.5,5.6c1,1,2.6,1.6,4.8,1.6c0.4,0,0.9,0,1.4-0.1
		c0.5,0,1-0.1,1.6-0.2c0.5-0.1,1-0.2,1.5-0.3c0.5-0.1,0.9-0.2,1.2-0.4c0.3-0.1,0.5-0.4,0.4-0.7l-0.6-2.4c-0.1-0.3-0.3-0.5-0.6-0.5
		c-0.2,0-0.7,0.1-1.5,0.3c-0.8,0.2-1.6,0.3-2.4,0.3c-0.9,0-1.5-0.3-1.9-1c-0.4-0.6-0.6-1.7-0.6-3.3v-14.2h7.1c0.4,0,0.7-0.2,0.7-0.6
		v-2.8C329.9,353.2,329.7,353,329.2,353 M264.1,352.8c-0.2-0.1-0.3-0.1-0.5-0.1h-0.5c-0.7,0-1.7,0.2-2.8,0.5
		c-1.1,0.3-2.5,0.9-4.1,1.7l-0.4-1.3c-0.1-0.2-0.1-0.3-0.2-0.4c-0.1-0.1-0.2-0.1-0.5-0.1h-2.7c-0.4,0-0.7,0.2-0.7,0.6v24.8
		c0,0.4,0.2,0.6,0.7,0.6h3.6c0.4,0,0.7-0.2,0.7-0.6v-20.1c1.2-0.4,2.4-0.6,3.6-0.7c1.2-0.1,2.2-0.2,2.9-0.2c0.5,0,0.8-0.2,0.8-0.6
		l0.5-3.2c0-0.2,0-0.4,0-0.5C264.4,353,264.3,352.9,264.1,352.8 M244.5,289.8h-25.1c-0.4,0-0.6,0.2-0.6,0.7v3c0,0.4,0.2,0.7,0.6,0.7
		h10.1v31.2c0,0.4,0.2,0.6,0.7,0.6h3.7c0.4,0,0.7-0.2,0.7-0.6v-31.2h10c0.4,0,0.6-0.2,0.6-0.7v-3C245.1,290,244.9,289.8,244.5,289.8
		 M401.6,303.9h2.6v15.3c0,2.7,0.5,4.6,1.5,5.6c1,1,2.6,1.6,4.8,1.6c0.4,0,0.9,0,1.4-0.1c0.5,0,1-0.1,1.6-0.2c0.5-0.1,1-0.2,1.5-0.3
		c0.5-0.1,0.9-0.2,1.2-0.4c0.3-0.1,0.5-0.4,0.4-0.7l-0.6-2.4c-0.1-0.3-0.3-0.5-0.6-0.5c-0.2,0-0.7,0.1-1.5,0.3
		c-0.8,0.2-1.6,0.3-2.4,0.3c-0.9,0-1.5-0.3-1.9-1c-0.4-0.6-0.6-1.7-0.6-3.3v-14.2h7.1c0.4,0,0.7-0.2,0.7-0.6v-2.8
		c0-0.4-0.2-0.6-0.7-0.6h-7.1v-6c0-0.4-0.2-0.6-0.7-0.6l-3.6,0.5c-0.4,0-0.7,0.2-0.7,0.6v5.5h-2.6c-0.4,0-0.7,0.2-0.7,0.6v2.8
		C401,303.7,401.2,303.9,401.6,303.9 M244.3,359.6h-4c-0.3,0-0.5,0.2-0.5,0.5v14.1c-0.5,0.2-1.2,0.3-2,0.5c-0.8,0.1-1.8,0.2-3,0.2
		c-2,0-3.7-0.3-5-0.9c-1.4-0.6-2.5-1.5-3.3-2.7c-0.8-1.2-1.4-2.7-1.8-4.5c-0.4-1.8-0.5-3.9-0.5-6.2c0-2.2,0.2-4.1,0.6-5.8
		c0.4-1.7,1-3.2,1.8-4.3c0.8-1.2,1.9-2.1,3.2-2.8c1.3-0.6,2.8-1,4.6-1c1.3,0,2.5,0.1,3.5,0.3c1.1,0.2,2.1,0.4,3.2,0.7
		c0.3,0.1,0.6-0.1,0.7-0.5l1-3c0.1-0.4-0.1-0.6-0.6-0.8c-0.8-0.3-1.9-0.5-3.3-0.8c-1.4-0.3-2.8-0.4-4.2-0.4c-5.1,0-9,1.6-11.8,4.8
		c-2.8,3.2-4.2,8.1-4.2,14.8c0,6,1.3,10.4,4.1,13.2c2.7,2.9,6.6,4.3,11.6,4.3c1,0,2,0,3-0.2c1-0.1,1.9-0.2,2.8-0.4
		c0.8-0.1,1.6-0.3,2.3-0.5c0.7-0.2,1.1-0.3,1.4-0.5c0.2-0.1,0.4-0.2,0.5-0.3c0.2-0.1,0.2-0.4,0.2-0.8v-16.7
		C244.8,359.8,244.6,359.6,244.3,359.6 M267.3,326.3c1.5,0,2.9-0.2,4.1-0.7c1.2-0.5,2.3-1.1,3.3-1.8l0.5,1.5
		c0.1,0.2,0.1,0.3,0.2,0.4c0.1,0.1,0.2,0.2,0.5,0.2h2.5c0.4,0,0.7-0.2,0.7-0.6v-18.5c0-1.4-0.2-2.6-0.6-3.5
		c-0.4-0.9-0.9-1.7-1.6-2.2c-0.7-0.6-1.6-1-2.6-1.2c-1-0.2-2.2-0.4-3.4-0.4c-0.6,0-1.3,0-2.1,0.1c-0.8,0.1-1.5,0.1-2.3,0.2
		c-0.7,0.1-1.4,0.2-2.1,0.3c-0.6,0.1-1.1,0.2-1.5,0.3c-0.4,0.1-0.6,0.4-0.5,0.8l0.5,2.7c0,0.4,0.2,0.6,0.6,0.6c0.1,0,0.4,0,0.9-0.1
		c0.5-0.1,1-0.2,1.7-0.3c0.6-0.1,1.3-0.2,2-0.3c0.7-0.1,1.3-0.1,1.8-0.1c1,0,1.8,0.1,2.4,0.3c0.6,0.2,1,0.5,1.3,1
		c0.3,0.4,0.5,1,0.6,1.6c0.1,0.6,0.2,1.4,0.2,2.2v1.5l-3.9,0.2c-1.4,0.1-2.6,0.3-3.9,0.6c-1.2,0.3-2.3,0.8-3.2,1.5
		c-0.9,0.7-1.6,1.5-2.2,2.6c-0.5,1.1-0.8,2.3-0.8,3.9c0,2.5,0.6,4.3,1.9,5.6C263.6,325.7,265.2,326.3,267.3,326.3 M269.7,314
		l4.6-0.3v6.8c-0.6,0.5-1.5,0.9-2.5,1.4c-1,0.4-2,0.7-2.9,0.7c-1.1,0-1.9-0.3-2.6-1c-0.6-0.7-0.9-1.7-0.9-3.1
		C265.3,315.6,266.7,314.2,269.7,314 M287,366.7c0.1-0.3,0.2-0.9,0.2-2c0-1.9-0.2-3.6-0.6-5.1c-0.4-1.5-0.9-2.8-1.7-3.8
		c-0.8-1-1.8-1.8-3-2.4c-1.2-0.6-2.6-0.8-4.3-0.8c-1.6,0-3,0.3-4.3,0.8c-1.3,0.5-2.5,1.3-3.4,2.4c-1,1.1-1.7,2.5-2.3,4.2
		c-0.6,1.7-0.8,3.8-0.8,6.2c0,4.5,1,7.9,2.9,10c1.9,2.1,4.7,3.2,8.2,3.2c1.4,0,2.8-0.1,4.3-0.4s2.9-0.7,4.4-1.3
		c0.4-0.2,0.5-0.4,0.4-0.8l-0.8-2.7c-0.1-0.2-0.2-0.4-0.4-0.4c-0.2,0-0.4,0-0.5,0.1c-1,0.4-2.1,0.7-3.2,1c-1.2,0.3-2.2,0.4-3.2,0.4
		c-1,0-1.9-0.1-2.7-0.4c-0.8-0.3-1.5-0.8-2.1-1.4c-0.6-0.6-1.1-1.5-1.4-2.5c-0.4-1-0.5-2.3-0.6-3.9h14.2
		C286.7,367.1,286.9,366.9,287,366.7 M272,363.3c0.3-4.6,2-6.9,5.1-6.9c0.9,0,1.7,0.2,2.4,0.6c0.6,0.4,1.2,0.9,1.5,1.5
		c0.4,0.6,0.7,1.4,0.8,2.2c0.2,0.8,0.3,1.7,0.3,2.6H272z M296.3,303.6c1.2,0,2.2,0.3,2.9,1c0.7,0.7,1,2,1,4v16.6
		c0,0.4,0.2,0.6,0.7,0.6h3.6c0.4,0,0.7-0.2,0.7-0.6V307c0-1.4-0.2-2.6-0.5-3.5c-0.4-1-0.9-1.7-1.5-2.3c-0.6-0.6-1.4-1-2.3-1.3
		c-0.9-0.3-1.8-0.4-2.9-0.4c-1.4,0-2.8,0.2-4.1,0.7c-1.3,0.5-2.5,1-3.7,1.6l-0.4-1.3c-0.1-0.2-0.1-0.3-0.2-0.4
		c-0.1-0.1-0.2-0.2-0.5-0.2h-2.7c-0.4,0-0.7,0.2-0.7,0.6v24.8c0,0.4,0.2,0.6,0.7,0.6h3.6c0.4,0,0.7-0.2,0.7-0.6v-20
		c0.7-0.4,1.6-0.8,2.6-1.2C294.3,303.8,295.3,303.6,296.3,303.6 M256.7,304.3c0.5,0,0.8-0.2,0.8-0.6l0.5-3.2c0-0.2,0-0.4,0-0.5
		c0-0.1-0.2-0.2-0.4-0.3c-0.2-0.1-0.3-0.1-0.5-0.1h-0.5c-0.7,0-1.7,0.2-2.8,0.5c-1.1,0.3-2.5,0.9-4.1,1.7l-0.4-1.3
		c-0.1-0.2-0.1-0.3-0.2-0.4c-0.1-0.1-0.2-0.1-0.5-0.1H246c-0.4,0-0.7,0.2-0.7,0.6v24.8c0,0.4,0.2,0.6,0.7,0.6h3.6
		c0.4,0,0.7-0.2,0.7-0.6v-20.1c1.2-0.4,2.4-0.6,3.6-0.7C255.1,304.3,256,304.3,256.7,304.3 M542.8,366.7c0.1-0.3,0.2-0.9,0.2-2
		c0-1.9-0.2-3.6-0.6-5.1c-0.4-1.5-0.9-2.8-1.7-3.8c-0.8-1-1.8-1.8-3-2.4c-1.2-0.6-2.6-0.8-4.3-0.8c-1.6,0-3,0.3-4.3,0.8
		c-1.3,0.5-2.5,1.3-3.4,2.4c-1,1.1-1.7,2.5-2.3,4.2c-0.6,1.7-0.8,3.8-0.8,6.2c0,4.5,1,7.9,2.9,10c1.9,2.1,4.7,3.2,8.2,3.2
		c1.4,0,2.8-0.1,4.3-0.4c1.5-0.3,2.9-0.7,4.4-1.3c0.4-0.2,0.5-0.4,0.4-0.8l-0.8-2.7c-0.1-0.2-0.2-0.4-0.4-0.4c-0.2,0-0.4,0-0.5,0.1
		c-1,0.4-2.1,0.7-3.2,1c-1.2,0.3-2.2,0.4-3.2,0.4c-1,0-1.9-0.1-2.7-0.4c-0.8-0.3-1.5-0.8-2.1-1.4c-0.6-0.6-1.1-1.5-1.4-2.5
		c-0.4-1-0.5-2.3-0.6-3.9H542C542.4,367.1,542.7,366.9,542.8,366.7 M527.8,363.3c0.3-4.6,2-6.9,5.1-6.9c0.9,0,1.7,0.2,2.4,0.6
		c0.6,0.4,1.2,0.9,1.5,1.5c0.4,0.6,0.7,1.4,0.8,2.2c0.2,0.8,0.3,1.7,0.3,2.6H527.8z M563.2,367.7c-0.5-0.6-1.1-1.1-1.8-1.6
		c-0.7-0.5-1.7-1.1-2.8-1.6l-2.6-1.3c-1.4-0.7-2.4-1.3-2.8-1.9c-0.5-0.6-0.7-1.3-0.7-1.9c0-0.9,0.3-1.5,1-2c0.7-0.5,1.6-0.7,2.6-0.7
		c0.6,0,1.2,0,1.8,0.1c0.6,0.1,1.2,0.2,1.7,0.3c0.5,0.1,1,0.2,1.4,0.3c0.4,0.1,0.7,0.1,0.9,0.1c0.3,0,0.4,0,0.5-0.1
		c0.1-0.1,0.1-0.2,0.2-0.4l0.7-2.7c0.1-0.4-0.1-0.6-0.5-0.7c-0.8-0.2-1.7-0.4-2.8-0.6c-1.1-0.2-2.2-0.3-3.4-0.3
		c-2.7,0-4.9,0.6-6.5,1.9c-1.6,1.3-2.4,3.1-2.4,5.3c0,1.5,0.4,2.8,1.2,3.9c0.8,1.1,2.2,2.2,4.2,3.1l2.8,1.4c1.4,0.7,2.4,1.3,2.9,1.9
		c0.5,0.6,0.7,1.4,0.7,2.3c0,0.9-0.4,1.6-1.2,2.1c-0.8,0.5-1.8,0.7-2.9,0.7c-0.7,0-1.4,0-2.1-0.2c-0.7-0.1-1.4-0.2-2-0.4
		c-0.6-0.1-1.2-0.3-1.7-0.4c-0.5-0.1-0.8-0.2-1-0.3c-0.3,0-0.5,0.2-0.6,0.6l-0.7,2.7c-0.1,0.4,0,0.6,0.4,0.8
		c0.3,0.1,0.7,0.2,1.2,0.4c0.5,0.2,1.1,0.3,1.8,0.4c0.7,0.1,1.4,0.2,2.2,0.3c0.8,0.1,1.6,0.1,2.4,0.1c1.2,0,2.4-0.2,3.5-0.5
		c1.1-0.3,2.1-0.8,2.9-1.4c0.8-0.6,1.5-1.4,2-2.4c0.5-1,0.7-2.1,0.7-3.5c0-0.8-0.1-1.5-0.3-2.2C563.9,368.9,563.6,368.2,563.2,367.7
		 M514.9,354.2c-0.6-0.6-1.4-1-2.3-1.3c-0.9-0.3-1.9-0.4-2.9-0.4c-1.3,0-2.6,0.2-3.9,0.6c-1.3,0.4-2.4,0.9-3.5,1.5v-11.2
		c0-0.4-0.2-0.6-0.7-0.6H498c-0.4,0-0.7,0.2-0.7,0.6v35c0,0.4,0.2,0.6,0.7,0.6h3.6c0.4,0,0.7-0.2,0.7-0.6v-20
		c0.7-0.4,1.6-0.8,2.7-1.2c1-0.4,2.1-0.5,3-0.5c1.2,0,2.2,0.3,3,1c0.7,0.7,1.1,2,1.1,4v16.6c0,0.4,0.2,0.6,0.7,0.6h3.6
		c0.4,0,0.7-0.2,0.7-0.6v-18.2c0-1.4-0.2-2.6-0.6-3.5C516,355.6,515.5,354.8,514.9,354.2 M343.5,299.5c-1.5,0-2.7,0.3-3.8,0.8
		c-1.1,0.5-2.1,1-2.9,1.5l-0.4-1.3c-0.1-0.2-0.1-0.3-0.2-0.4c-0.1-0.1-0.2-0.2-0.5-0.2H333c-0.4,0-0.7,0.2-0.7,0.6V337
		c0,0.4,0.2,0.6,0.7,0.6h3.6c0.4,0,0.7-0.2,0.7-0.6v-11.7c1.8,0.7,3.4,1.1,4.8,1.1c3.5,0,6.2-1.2,8.2-3.5c2-2.4,3-5.9,3-10.7
		c0-4.1-0.8-7.3-2.5-9.4C349.2,300.5,346.7,299.5,343.5,299.5 M346.6,319.9c-1,1.5-2.6,2.3-4.6,2.3c-0.8,0-1.7-0.1-2.6-0.4
		c-0.9-0.3-1.6-0.6-2.2-0.9v-15.7c0.7-0.4,1.5-0.8,2.3-1.2c0.8-0.4,1.8-0.6,2.9-0.6c2,0,3.4,0.8,4.3,2.3c0.9,1.5,1.3,4,1.3,7.5
		C348.2,316.2,347.7,318.4,346.6,319.9 M459.1,299.5c-1.6,0-3.1,0.3-4.4,0.8c-1.3,0.5-2.5,1.4-3.4,2.5c-1,1.1-1.7,2.6-2.2,4.4
		c-0.5,1.8-0.8,3.9-0.8,6.5c0,4.5,0.9,7.7,2.7,9.7c1.8,2,4.4,3,8,3c1.6,0,3.1-0.3,4.4-0.8c1.3-0.5,2.5-1.4,3.4-2.5
		c1-1.1,1.7-2.6,2.2-4.4c0.5-1.8,0.8-3.9,0.8-6.5c0-4.5-0.9-7.7-2.7-9.7C465.3,300.5,462.7,299.5,459.1,299.5 M463.4,320
		c-0.8,1.5-2.3,2.3-4.4,2.3c-1,0-1.8-0.2-2.5-0.5c-0.7-0.3-1.3-0.9-1.8-1.7c-0.5-0.8-0.8-1.8-1-3.1c-0.2-1.2-0.3-2.8-0.3-4.6
		c0-2.9,0.4-5.1,1.2-6.6c0.8-1.5,2.3-2.3,4.4-2.3c1,0,1.9,0.2,2.6,0.5c0.7,0.3,1.3,0.9,1.7,1.7c0.5,0.8,0.8,1.8,1,3.1
		c0.2,1.2,0.3,2.8,0.3,4.6C464.6,316.3,464.2,318.5,463.4,320 M625.1,353.1c0-0.1-0.2-0.2-0.4-0.3c-0.2-0.1-0.3-0.1-0.5-0.1h-0.5
		c-0.7,0-1.7,0.2-2.8,0.5c-1.1,0.3-2.5,0.9-4.1,1.7l-0.4-1.3c-0.1-0.2-0.1-0.3-0.2-0.4c-0.1-0.1-0.2-0.1-0.5-0.1H613
		c-0.4,0-0.7,0.2-0.7,0.6v24.8c0,0.4,0.2,0.6,0.7,0.6h3.6c0.4,0,0.7-0.2,0.7-0.6v-20.1c1.2-0.4,2.4-0.6,3.6-0.7
		c1.2-0.1,2.2-0.2,2.9-0.2c0.5,0,0.8-0.2,0.8-0.6l0.5-3.2C625.1,353.4,625.1,353.2,625.1,353.1 M606.5,366.7c0.1-0.3,0.2-0.9,0.2-2
		c0-1.9-0.2-3.6-0.6-5.1c-0.4-1.5-0.9-2.8-1.7-3.8c-0.8-1-1.8-1.8-3-2.4c-1.2-0.6-2.6-0.8-4.3-0.8c-1.6,0-3,0.3-4.3,0.8
		c-1.3,0.5-2.5,1.3-3.4,2.4c-1,1.1-1.7,2.5-2.3,4.2c-0.6,1.7-0.8,3.8-0.8,6.2c0,4.5,1,7.9,2.9,10c1.9,2.1,4.7,3.2,8.2,3.2
		c1.4,0,2.8-0.1,4.3-0.4c1.5-0.3,2.9-0.7,4.4-1.3c0.4-0.2,0.5-0.4,0.4-0.8l-0.8-2.7c-0.1-0.2-0.2-0.4-0.4-0.4c-0.2,0-0.4,0-0.5,0.1
		c-1,0.4-2.1,0.7-3.2,1c-1.2,0.3-2.2,0.4-3.2,0.4c-1,0-1.9-0.1-2.7-0.4c-0.8-0.3-1.5-0.8-2.1-1.4c-0.6-0.6-1.1-1.5-1.4-2.5
		c-0.4-1-0.5-2.3-0.6-3.9h14.2C606.2,367.1,606.4,366.9,606.5,366.7 M591.5,363.3c0.3-4.6,2-6.9,5.1-6.9c0.9,0,1.7,0.2,2.4,0.6
		c0.6,0.4,1.2,0.9,1.5,1.5c0.4,0.6,0.7,1.4,0.8,2.2c0.2,0.8,0.3,1.7,0.3,2.6H591.5z M582.9,353h-7.1v-6c0-0.4-0.2-0.6-0.7-0.6
		l-3.6,0.5c-0.4,0-0.7,0.2-0.7,0.6v5.5h-2.6c-0.4,0-0.7,0.2-0.7,0.6v2.8c0,0.4,0.2,0.6,0.7,0.6h2.6v15.3c0,2.7,0.5,4.6,1.5,5.6
		c1,1,2.6,1.6,4.8,1.6c0.4,0,0.9,0,1.4-0.1c0.5,0,1-0.1,1.6-0.2c0.5-0.1,1-0.2,1.5-0.3c0.5-0.1,0.9-0.2,1.2-0.4
		c0.3-0.1,0.5-0.4,0.4-0.7l-0.6-2.4c-0.1-0.3-0.3-0.5-0.6-0.5c-0.2,0-0.7,0.1-1.5,0.3c-0.8,0.2-1.6,0.3-2.4,0.3
		c-0.9,0-1.5-0.3-1.9-1c-0.4-0.6-0.6-1.7-0.6-3.3v-14.2h7.1c0.4,0,0.7-0.2,0.7-0.6v-2.8C583.5,353.2,583.3,353,582.9,353
		 M491.8,374.8c-0.1-0.2-0.2-0.3-0.4-0.4c-0.2-0.1-0.4-0.1-0.5,0c-1.4,0.5-2.8,0.8-4.4,0.8c-1,0-1.9-0.2-2.7-0.5
		c-0.8-0.3-1.5-0.9-2.1-1.7c-0.6-0.8-1-1.8-1.3-3c-0.3-1.2-0.4-2.8-0.4-4.6c0-2.7,0.5-4.9,1.6-6.4c1-1.6,2.6-2.4,4.6-2.4
		c1,0,1.8,0.1,2.5,0.2c0.6,0.1,1.2,0.3,1.7,0.4c0.3,0.1,0.5-0.1,0.6-0.6l0.7-2.9c0.1-0.4-0.1-0.7-0.5-0.8c-0.5-0.2-1.2-0.3-2.1-0.5
		c-0.9-0.1-1.8-0.2-2.7-0.2c-1.6,0-3.1,0.3-4.5,0.8c-1.4,0.6-2.6,1.4-3.6,2.6c-1,1.2-1.8,2.6-2.4,4.4c-0.6,1.8-0.9,3.9-0.9,6.3
		c0,4.4,0.9,7.6,2.8,9.7c1.9,2.1,4.6,3.1,8.1,3.1c1,0,2.1-0.1,3.3-0.3c1.2-0.2,2.2-0.5,3-0.9c0.4-0.2,0.5-0.4,0.4-0.8L491.8,374.8z
		 M390,325.3v-20.1c1.2-0.4,2.4-0.6,3.6-0.7c1.2-0.1,2.2-0.2,2.9-0.2c0.5,0,0.8-0.2,0.8-0.6l0.5-3.2c0-0.2,0-0.4,0-0.5
		c0-0.1-0.2-0.2-0.4-0.3c-0.2-0.1-0.3-0.1-0.5-0.1h-0.5c-0.7,0-1.7,0.2-2.8,0.5c-1.2,0.3-2.5,0.9-4.1,1.7l-0.4-1.3
		c-0.1-0.2-0.1-0.3-0.2-0.4c-0.1-0.1-0.2-0.1-0.5-0.1h-2.7c-0.4,0-0.7,0.2-0.7,0.6v24.8c0,0.4,0.2,0.6,0.7,0.6h3.6
		C389.8,325.8,390,325.7,390,325.3 M368.7,299.5c-1.6,0-3.1,0.3-4.4,0.8c-1.3,0.5-2.5,1.4-3.4,2.5c-1,1.1-1.7,2.6-2.2,4.4
		c-0.5,1.8-0.8,3.9-0.8,6.5c0,4.5,0.9,7.7,2.7,9.7c1.8,2,4.4,3,8,3c1.6,0,3.1-0.3,4.4-0.8c1.3-0.5,2.5-1.4,3.4-2.5
		c1-1.1,1.7-2.6,2.2-4.4c0.5-1.8,0.8-3.9,0.8-6.5c0-4.5-0.9-7.7-2.7-9.7C374.9,300.5,372.2,299.5,368.7,299.5 M372.9,320
		c-0.8,1.5-2.3,2.3-4.4,2.3c-1,0-1.8-0.2-2.5-0.5c-0.7-0.3-1.3-0.9-1.8-1.7c-0.5-0.8-0.8-1.8-1-3.1c-0.2-1.2-0.3-2.8-0.3-4.6
		c0-2.9,0.4-5.1,1.2-6.6c0.8-1.5,2.3-2.3,4.4-2.3c1,0,1.9,0.2,2.6,0.5c0.7,0.3,1.3,0.9,1.7,1.7c0.5,0.8,0.8,1.8,1,3.1
		c0.2,1.2,0.3,2.8,0.3,4.6C374.2,316.3,373.8,318.5,372.9,320 M371.1,352.8c-0.2-0.1-0.3-0.1-0.5-0.1h-0.5c-0.7,0-1.7,0.2-2.8,0.5
		c-1.2,0.3-2.5,0.9-4.1,1.7l-0.4-1.3c-0.1-0.2-0.1-0.3-0.2-0.4c-0.1-0.1-0.2-0.1-0.5-0.1h-2.7c-0.4,0-0.7,0.2-0.7,0.6v24.8
		c0,0.4,0.2,0.6,0.7,0.6h3.6c0.4,0,0.7-0.2,0.7-0.6v-20.1c1.2-0.4,2.4-0.6,3.6-0.7c1.2-0.1,2.2-0.2,2.9-0.2c0.5,0,0.8-0.2,0.8-0.6
		l0.5-3.2c0-0.2,0-0.4,0-0.5C371.4,353,371.3,352.9,371.1,352.8 M416.3,342.8h-5.1c-0.4,0-0.6,0.2-0.8,0.6l-7,20.9l-6.9-20.9
		c-0.1-0.4-0.4-0.6-0.8-0.6h-5.4c-0.4,0-0.7,0.2-0.7,0.6l-2.9,35c0,0.4,0.2,0.6,0.6,0.6h3.5c0.4,0,0.7-0.2,0.7-0.6l2.1-29.7
		l7.1,21.2c0.1,0.3,0.4,0.5,0.8,0.5h3c0.4,0,0.7-0.2,0.8-0.5l7.3-21.3l2.2,29.8c0,0.4,0.2,0.6,0.7,0.6h3.6c0.4,0,0.6-0.2,0.6-0.6
		l-2.9-35C417,343,416.8,342.8,416.3,342.8 M467.3,354.2c-0.6-0.6-1.4-1-2.3-1.3c-0.9-0.3-1.8-0.4-2.9-0.4c-1.4,0-2.8,0.2-4.1,0.7
		c-1.3,0.5-2.5,1-3.7,1.6l-0.4-1.3c-0.1-0.2-0.1-0.3-0.2-0.4c-0.1-0.1-0.2-0.2-0.5-0.2h-2.7c-0.4,0-0.7,0.2-0.7,0.6v24.8
		c0,0.4,0.2,0.6,0.7,0.6h3.6c0.4,0,0.7-0.2,0.7-0.6v-20c0.7-0.4,1.6-0.8,2.6-1.2c1-0.4,2-0.5,3-0.5c1.2,0,2.2,0.3,2.9,1
		c0.7,0.7,1,2,1,4v16.6c0,0.4,0.2,0.6,0.7,0.6h3.6c0.4,0,0.7-0.2,0.7-0.6v-18.2c0-1.4-0.2-2.6-0.5-3.5
		C468.4,355.6,467.9,354.8,467.3,354.2 M446.7,290c-0.6-0.2-1.4-0.3-2.2-0.5c-0.9-0.2-1.8-0.2-2.8-0.2c-2.5,0-4.4,0.8-5.6,2.3
		c-1.2,1.5-1.8,3.9-1.8,7.1v1.4h-2.6c-0.4,0-0.7,0.2-0.7,0.6v2.8c0,0.4,0.2,0.6,0.7,0.6h2.6v21.4c0,0.4,0.2,0.6,0.7,0.6h3.6
		c0.4,0,0.7-0.2,0.7-0.6v-21.4h5.8c0.4,0,0.7-0.2,0.7-0.6v-2.8c0-0.4-0.2-0.6-0.7-0.6h-5.8v-2.6c0-1.6,0.2-2.7,0.7-3.3
		c0.5-0.6,1.3-0.9,2.4-0.9c0.3,0,0.7,0,1.1,0.1c0.4,0,0.8,0.1,1.1,0.2c0.4,0.1,0.7,0.2,0.9,0.2s0.5,0.1,0.6,0.1
		c0.3,0,0.5-0.2,0.6-0.5l0.6-2.5c0-0.2,0-0.3,0-0.4C447,290.1,446.9,290,446.7,290 M441,354.1c-0.7-0.6-1.6-1-2.6-1.2
		c-1-0.2-2.2-0.4-3.4-0.4c-0.6,0-1.3,0-2.1,0.1c-0.8,0.1-1.5,0.1-2.3,0.2c-0.7,0.1-1.4,0.2-2.1,0.3c-0.6,0.1-1.1,0.2-1.5,0.3
		c-0.4,0.1-0.6,0.4-0.5,0.8l0.5,2.7c0,0.4,0.2,0.6,0.6,0.6c0.1,0,0.4,0,0.9-0.1c0.5-0.1,1-0.2,1.7-0.3c0.6-0.1,1.3-0.2,2-0.3
		c0.7-0.1,1.3-0.1,1.8-0.1c1,0,1.8,0.1,2.4,0.3c0.6,0.2,1,0.5,1.3,1c0.3,0.4,0.5,1,0.6,1.6c0.1,0.6,0.2,1.4,0.2,2.2v1.5l-3.9,0.2
		c-1.3,0.1-2.6,0.3-3.8,0.6c-1.2,0.3-2.3,0.8-3.2,1.5c-0.9,0.7-1.6,1.5-2.2,2.6c-0.5,1.1-0.8,2.4-0.8,3.9c0,2.5,0.6,4.3,1.9,5.6
		c1.3,1.2,2.9,1.8,5,1.8c1.5,0,2.9-0.2,4.1-0.7c1.2-0.5,2.3-1.1,3.3-1.8l0.5,1.5c0.1,0.2,0.1,0.3,0.2,0.4c0.1,0.1,0.2,0.2,0.5,0.2
		h2.5c0.4,0,0.7-0.2,0.7-0.6v-18.5c0-1.4-0.2-2.6-0.6-3.5C442.2,355.4,441.7,354.6,441,354.1 M438.4,373.5c-0.6,0.5-1.5,0.9-2.5,1.4
		c-1.1,0.4-2,0.7-2.9,0.7c-1.1,0-1.9-0.3-2.6-1c-0.6-0.7-0.9-1.7-0.9-3.1c0-2.7,1.5-4.1,4.4-4.3l4.6-0.3V373.5z M188.3,387.3l-6,0
		c-8.7,0-15.7-7-15.7-15.7v-74.8c0-12-9.7-21.7-21.8-21.7c-12,0-21.8,9.7-21.8,21.7v74.8c0,8.7-7,15.7-15.7,15.7s-15.7-7-15.7-15.7
		h0v-74.8h0c0-12-9.7-21.7-21.8-21.7c-12,0-21.8,9.7-21.8,21.7v74.8c0,8.7-7,15.7-15.7,15.7l-6,0c-0.7,0-1.2,0.5-1.2,1.2v12.1
		c0,0.7,0.5,1.2,1.2,1.2l6,0c16.7,0,30.2-13.5,30.2-30.1v-74.8v0c0-4,3.2-7.2,7.3-7.2c4,0,7.3,3.2,7.3,7.2v74.8
		c0,16.6,13.5,30.1,30.2,30.1c16.7,0,30.2-13.5,30.2-30.1v-74.8v0c0-4,3.2-7.2,7.3-7.2c4,0,7.3,3.2,7.3,7.2v74.8
		c0,16.6,13.5,30.1,30.2,30.1l6,0c0.7,0,1.2-0.5,1.2-1.2v-12.1C189.5,387.9,189,387.3,188.3,387.3 M144.8,252.3
		c-15.7,0-29.5,8.1-37.5,20.3c-8-12.2-21.8-20.3-37.5-20.3c-24.7,0-44.7,20-44.7,44.6v80.8c0,0.7,0.5,1.2,1.2,1.2h6h0
		c4,0,7.3-3.2,7.3-7.2v-74.8c0-16.6,13.5-30.1,30.2-30.1c16.7,0,30.2,13.5,30.2,30.1v74.7v0c0,4,3.2,7.2,7.3,7.2
		c4,0,7.3-3.2,7.3-7.2v0v-74.7c0-16.6,13.5-30.1,30.2-30.1c16.7,0,30.2,13.5,30.2,30.1v74.7v0c0,4,3.2,7.2,7.3,7.2h0h6
		c0.7,0,1.2-0.5,1.2-1.2v-80.8C189.5,272.3,169.5,252.3,144.8,252.3"/>
</g>
</svg>
